<svg width="70" height="70" viewBox="0 0 70 70" fill="none" xmlns="http://www.w3.org/2000/svg">
<g clip-path="url(#clip0_125_180)">
<path d="M69.5979 13.2086L56.7917 0.402183C56.5003 0.110699 56.092 -0.034769 55.6831 0.00706687L48.5611 0.725796C48.0336 0.779116 47.5838 1.1313 47.4057 1.63087C47.3613 1.75597 47.3357 1.88462 47.3284 2.01314L46.7196 12.5663C41.984 9.73103 36.5541 8.21756 30.8915 8.21756C22.6401 8.21756 14.8827 11.4309 9.04814 17.2653C3.21354 23.0999 0.000244141 30.8575 0.000244141 39.1088C0.000244141 47.3602 3.21354 55.1176 9.04814 60.9522C14.8827 66.7868 22.6403 70.0001 30.8915 70.0001C39.1427 70.0001 46.9003 66.7868 52.7349 60.9522C58.5695 55.1176 61.7828 47.3601 61.7828 39.1087C61.7828 33.4461 60.2692 28.0163 57.4339 23.2807C57.4339 23.2807 67.9916 22.6708 67.994 22.6705C68.1202 22.6625 68.2466 22.6381 68.3693 22.5943C68.8688 22.4163 69.2211 21.9665 69.2744 21.4391L69.993 14.3171C70.0344 13.907 69.8894 13.5001 69.5979 13.2086ZM62.7663 10.2603L61.3543 12.8053L57.1948 8.64576L59.7399 7.23373L62.7663 10.2603ZM59.3801 14.7147L53.3343 17.8825C53.1374 17.6745 52.9382 17.4683 52.735 17.2652C52.5319 17.062 52.3257 16.8628 52.1179 16.6659L55.2856 10.6201L59.3801 14.7147ZM55.3105 2.8046L57.7202 5.21426L55.175 6.62629L51.7161 3.16731L55.3105 2.8046ZM49.8932 5.2278L53.2513 8.58588L49.9845 14.8207C49.7804 14.6595 49.5746 14.501 49.3671 14.3456L49.8932 5.2278ZM50.7932 59.0104C45.4773 64.3264 38.4094 67.254 30.8914 67.254C23.3734 67.254 16.3057 64.3263 10.9895 59.0104C5.67351 53.6945 2.74596 46.6266 2.74596 39.1086C2.74596 31.5905 5.67365 24.5226 10.9895 19.2067C16.4763 13.7198 23.6837 10.9763 30.8914 10.9763C38.0988 10.9763 45.3062 13.7197 50.7932 19.2067C61.7672 30.1807 61.7672 48.0367 50.7932 59.0104ZM55.6545 20.6328C55.4989 20.4254 55.3405 20.2195 55.1794 20.0155L61.4142 16.7488L64.7723 20.1069L55.6545 20.6328ZM66.8329 18.2841L63.3739 14.8252L64.7859 12.28L67.1956 14.6897L66.8329 18.2841Z" fill="#A0A37A"/>
<path d="M43.0266 51.2438C39.785 54.4853 35.4754 56.2704 30.8915 56.2704C30.1332 56.2704 29.5186 56.8851 29.5186 57.6433C29.5186 58.4016 30.1332 59.0162 30.8915 59.0162C36.2089 59.0162 41.2083 56.9454 44.9684 53.1853C46.9046 51.2491 48.3925 48.991 49.3911 46.4738C49.6707 45.7689 49.3258 44.971 48.621 44.6914C47.9165 44.4116 47.1182 44.7568 46.8386 45.4614C45.9789 47.6286 44.6965 49.5741 43.0266 51.2438Z" fill="#A0A37A"/>
<path d="M49.3938 40.7364C49.4005 40.7364 49.407 40.7365 49.4139 40.7365C50.163 40.7365 50.7756 40.1347 50.7863 39.383C50.7876 39.2917 50.7882 39.2001 50.7882 39.1088C50.7882 38.3505 50.1733 37.7358 49.4152 37.7358C48.6571 37.7358 48.0423 38.3505 48.0423 39.1088C48.0423 39.1872 48.0418 39.2659 48.0407 39.3441C48.0297 40.1022 48.6355 40.7256 49.3938 40.7364Z" fill="#A0A37A"/>
<path d="M30.8912 13.709C24.1069 13.709 17.7284 16.3509 12.9312 21.1482C8.14116 25.9383 5.50317 32.3168 5.50317 39.1084C5.50317 45.9002 8.14116 52.2785 12.9314 57.0686C17.7285 61.8659 24.107 64.508 30.8914 64.508C37.6758 64.508 44.0542 61.866 48.8515 57.0687C53.6416 52.2786 56.2797 45.9002 56.2797 39.1085C56.2797 32.3169 53.6416 25.9385 48.8515 21.1484C44.054 16.3509 37.6756 13.709 30.8912 13.709ZM46.9099 55.127C42.6311 59.4058 36.9423 61.7622 30.8914 61.7622C24.8404 61.7622 19.1516 59.4059 14.8729 55.127C10.6014 50.8557 8.24903 45.1668 8.24903 39.1084C8.24903 33.0501 10.6014 27.3614 14.8729 23.0901C19.1515 18.8113 24.8404 16.4548 30.8914 16.4548C36.9423 16.4548 42.6311 18.8112 46.9099 23.0901C51.1812 27.3614 53.5337 33.0503 53.5337 39.1084C53.5337 45.1668 51.1812 50.8555 46.9099 55.127Z" fill="#A0A37A"/>
</g>
<defs>
<clipPath id="clip0_125_180">
<rect width="70" height="70" fill="white"/>
</clipPath>
</defs>
</svg>
