<svg width="80" height="80" viewBox="0 0 80 80" fill="none" xmlns="http://www.w3.org/2000/svg">
<path d="M51.7876 50.6C51.6258 50.6286 51.4713 50.6889 51.3329 50.7773C51.1945 50.8657 51.0748 50.9805 50.9808 51.1152C50.8868 51.2498 50.8202 51.4017 50.7849 51.5621C50.7496 51.7225 50.7463 51.8883 50.7751 52.05C50.958 52.7608 50.989 53.5022 50.8663 54.2259C50.7435 54.9495 50.4697 55.6392 50.0626 56.25C49.5986 56.7546 49.0342 57.1565 48.4055 57.4299C47.7769 57.7034 47.098 57.8422 46.4126 57.8375C46.1003 57.8565 45.7873 57.8565 45.4751 57.8375C43.4036 57.7314 41.3656 57.2705 39.4501 56.475C36.1326 55.1404 33.0386 53.3067 30.2751 51.0375C24.9376 46.75 21.0876 41.4375 20.2751 37.125C20.2751 36.9875 20.2751 36.8625 20.2126 36.7375C20.055 36.0665 20.0415 35.3698 20.1729 34.6932C20.3043 34.0166 20.5777 33.3756 20.9751 32.8125C22.2251 31.2625 24.5251 31.1 26.2501 31.25C26.565 31.251 26.8686 31.1331 27.1004 30.9199C27.3321 30.7067 27.4749 30.4139 27.5001 30.1C27.5279 29.7722 27.4254 29.4466 27.2148 29.1939C27.0042 28.9412 26.7025 28.7817 26.3751 28.75C23.0501 28.475 20.4876 29.325 18.9501 31.25C18.3602 32.0441 17.9394 32.9508 17.7136 33.914C17.4879 34.8772 17.462 35.8764 17.6376 36.85L16.0626 44.4125L12.9126 59.55L9.75005 74.75C9.69859 74.9784 9.71231 75.2167 9.78966 75.4377C9.86701 75.6587 10.0049 75.8535 10.1876 76C10.4108 76.1791 10.6888 76.2762 10.9751 76.275C11.1519 76.2742 11.3266 76.2358 11.4876 76.1625L29.3751 68.1125L46.8751 60.2875C47.8643 60.2457 48.8347 60.0025 49.7267 59.5726C50.6187 59.1427 51.4135 58.5353 52.0626 57.7875C52.7171 56.9014 53.1685 55.8821 53.3845 54.8019C53.6006 53.7217 53.576 52.6071 53.3126 51.5375C53.2759 51.3747 53.207 51.2209 53.11 51.0852C53.013 50.9495 52.8898 50.8346 52.7477 50.7472C52.6056 50.6598 52.4474 50.6018 52.2825 50.5765C52.1176 50.5512 51.9493 50.5592 51.7876 50.6ZM14.2876 65.25C14.9876 67.2374 15.9146 69.1375 17.0501 70.9125L12.7126 72.8625L14.2876 65.25ZM19.3751 69.8625C17.3873 66.8336 16.0389 63.4308 15.4126 59.8625L17.1876 51.25C17.5715 52.5888 18.0348 53.9037 18.5751 55.1875C20.3183 59.5612 23.0225 63.4872 26.4876 66.675L19.3751 69.8625ZM29.0626 65.525C25.445 62.5126 22.6354 58.646 20.8876 54.275C19.6157 51.2466 18.831 48.0361 18.5626 44.7625L19.1876 41.7625C21.5152 46.1474 24.7544 49.9833 28.6876 53.0125C31.6568 55.4127 34.9739 57.3473 38.5251 58.75C39.5709 59.1655 40.6443 59.508 41.7376 59.775L29.0626 65.525Z" fill="#A0A37A"/>
<path d="M35.1375 17.7124C34.8059 17.7124 34.488 17.8441 34.2536 18.0785C34.0192 18.3129 33.8875 18.6309 33.8875 18.9624C33.5358 27.0939 31.0153 34.9832 26.5875 41.8124C26.4964 41.9495 26.4331 42.1031 26.4014 42.2646C26.3697 42.4261 26.3701 42.5923 26.4026 42.7536C26.4351 42.915 26.4991 43.0683 26.5908 43.205C26.6826 43.3416 26.8004 43.4588 26.9375 43.5499C27.0745 43.641 27.2282 43.7042 27.3897 43.7359C27.5512 43.7677 27.7174 43.7672 27.8787 43.7347C28.04 43.7022 28.1934 43.6383 28.33 43.5465C28.4666 43.4548 28.5839 43.337 28.675 43.1999C33.4035 35.9685 36.07 27.5842 36.3875 18.9499C36.3842 18.6206 36.251 18.3058 36.0169 18.0741C35.7829 17.8424 35.4668 17.7124 35.1375 17.7124Z" fill="#A0A37A"/>
<path d="M33.0125 45.7999C33.1869 45.7995 33.3593 45.7626 33.5187 45.6916C33.678 45.6205 33.8206 45.5169 33.9375 45.3874L43.9375 34.2999C44.1379 34.0502 44.2348 33.7331 44.2083 33.4141C44.1818 33.095 44.0339 32.7983 43.795 32.585C43.5561 32.3718 43.2446 32.2584 42.9246 32.2682C42.6045 32.2779 42.3004 32.4101 42.075 32.6374L32.075 43.7499C31.9641 43.8726 31.8787 44.0161 31.8237 44.172C31.7687 44.3279 31.7451 44.4932 31.7544 44.6583C31.7637 44.8234 31.8057 44.985 31.8779 45.1338C31.9501 45.2825 32.0511 45.4155 32.175 45.5249C32.4115 45.7152 32.7092 45.813 33.0125 45.7999Z" fill="#A0A37A"/>
<path d="M37.2875 47.0875C37.6093 47.0862 37.9183 46.9608 38.15 46.7375C42.4377 42.9143 47.624 40.2395 53.225 38.9625C53.3891 38.9297 53.5452 38.8648 53.6843 38.7717C53.8234 38.6785 53.9428 38.5589 54.0356 38.4196C54.1285 38.2803 54.193 38.1241 54.2255 37.9599C54.258 37.7957 54.2578 37.6267 54.225 37.4625C54.1921 37.2983 54.1273 37.1423 54.0342 37.0032C53.941 36.8641 53.8214 36.7447 53.6821 36.6518C53.5428 36.559 53.3866 36.4945 53.2224 36.462C53.0581 36.4295 52.8891 36.4297 52.725 36.4625C46.6753 37.8235 41.0786 40.7208 36.475 44.875C36.3578 44.9912 36.2648 45.1295 36.2014 45.2818C36.1379 45.4341 36.1052 45.5975 36.1052 45.7625C36.1052 45.9275 36.1379 46.0909 36.2014 46.2432C36.2648 46.3955 36.3578 46.5338 36.475 46.65C36.6801 46.8941 36.9708 47.0506 37.2875 47.0875Z" fill="#A0A37A"/>
<path d="M40.9126 50.7624C40.6797 50.9966 40.5491 51.3134 40.5491 51.6436C40.5491 51.9739 40.6797 52.2907 40.9126 52.5249C41.1443 52.7482 41.4532 52.8736 41.7751 52.8749C41.9434 52.8742 42.11 52.8396 42.2646 52.773C42.4193 52.7064 42.5589 52.6093 42.6751 52.4874C42.9501 52.2124 49.4876 45.5749 58.1626 52.3499C58.4245 52.5538 58.7566 52.6453 59.086 52.6042C59.4154 52.5632 59.7149 52.393 59.9188 52.1311C60.1227 51.8692 60.2142 51.5371 60.1732 51.2077C60.1321 50.8784 59.962 50.5788 59.7001 50.3749C49.3126 42.2374 40.9876 50.6749 40.9126 50.7624Z" fill="#A0A37A"/>
<path d="M31.8 12.5L30 16.1125C29.8827 16.349 29.8433 16.6166 29.8875 16.8769C29.9317 17.1372 30.0572 17.3768 30.2459 17.5614C30.4347 17.746 30.677 17.8661 30.9382 17.9045C31.1995 17.9428 31.4661 17.8975 31.7 17.775L35.25 15.9125L38.125 18.75C38.2418 18.8658 38.3803 18.9575 38.5326 19.0197C38.6849 19.0819 38.848 19.1134 39.0125 19.1125C39.2118 19.1085 39.4079 19.0616 39.5875 18.975C39.8224 18.8517 40.012 18.6569 40.1289 18.4186C40.2457 18.1804 40.2838 17.9112 40.2375 17.65L39.575 13.7125L43.1125 11.85C43.3362 11.7329 43.5193 11.5509 43.6376 11.3277C43.7558 11.1046 43.8037 10.8509 43.775 10.6C43.7303 10.3403 43.6048 10.1013 43.4162 9.9172C43.2276 9.73312 42.9857 9.61334 42.725 9.57498L38.75 8.88748L38.0875 4.99998C38.0428 4.74026 37.9173 4.50128 37.7287 4.3172C37.5401 4.13312 37.2982 4.01334 37.0375 3.97498C36.7852 3.94732 36.5305 3.99708 36.3073 4.11765C36.084 4.23822 35.9027 4.42389 35.7875 4.64998L33.9625 8.17498L30 7.59998C29.7477 7.57232 29.493 7.62208 29.2698 7.74265C29.0465 7.86322 28.8652 8.04889 28.75 8.27498C28.633 8.51205 28.5941 8.78012 28.639 9.04066C28.6839 9.3012 28.8103 9.54079 29 9.72498L31.8 12.5ZM34.5 10.7875C34.7536 10.8141 35.0093 10.7624 35.2327 10.6396C35.4561 10.5167 35.6366 10.3284 35.75 10.1L36.25 9.14998L36.425 10.2C36.4661 10.4679 36.5932 10.7152 36.7871 10.9046C36.981 11.0939 37.2312 11.2152 37.5 11.25L38.55 11.4125L37.6125 11.9C37.3775 12.0207 37.1869 12.2127 37.0679 12.4485C36.9488 12.6843 36.9076 12.9518 36.95 13.2125L37.1375 14.2625L36.375 13.525C36.1422 13.2941 35.8279 13.1639 35.5 13.1625C35.2965 13.1651 35.096 13.212 34.9125 13.3L33.975 13.8L34.45 12.85C34.567 12.6129 34.6058 12.3448 34.5609 12.0843C34.516 11.8238 34.3896 11.5842 34.2 11.4L33.4375 10.65L34.5 10.7875Z" fill="#A0A37A"/>
<path d="M40.5749 23.9376C40.2455 25.2421 40.4475 26.6241 41.1366 27.7797C41.8258 28.9353 42.9456 29.7699 44.2499 30.1001C44.6592 30.1992 45.0788 30.2496 45.4999 30.2501C46.4504 30.2495 47.3815 29.982 48.1874 29.4781C48.9932 28.9742 49.6414 28.2542 50.0581 27.3999C50.4747 26.5457 50.6431 25.5916 50.5441 24.6464C50.4451 23.7011 50.0826 22.8027 49.498 22.0533C48.9134 21.304 48.1301 20.7339 47.2373 20.4079C46.3445 20.0819 45.3781 20.0132 44.4482 20.2096C43.5183 20.406 42.6622 20.8595 41.9774 21.5186C41.2926 22.1777 40.8067 23.0159 40.5749 23.9376V23.9376ZM42.9999 24.5501C43.1245 24.056 43.3928 23.61 43.7709 23.2685C44.149 22.927 44.6199 22.7054 45.1241 22.6316C45.6282 22.5578 46.1429 22.6353 46.603 22.8542C47.0631 23.073 47.4479 23.4235 47.7088 23.8612C47.9696 24.2988 48.0948 24.804 48.0684 25.3129C48.042 25.8217 47.8652 26.3112 47.5605 26.7196C47.2558 27.1279 46.8367 27.4367 46.3565 27.6067C45.8762 27.7768 45.3562 27.8006 44.8624 27.6751C44.2032 27.5041 43.638 27.0802 43.2893 26.4952C42.9406 25.9102 42.8367 25.2113 42.9999 24.5501V24.5501Z" fill="#A0A37A"/>
<path d="M60.0001 37.0874C60.1107 37.274 60.268 37.4286 60.4565 37.536C60.645 37.6434 60.8582 37.6999 61.0751 37.6999C61.2994 37.6998 61.5196 37.6394 61.7126 37.5249L66.4376 34.7124C66.7227 34.5433 66.9289 34.2679 67.0109 33.9467C67.093 33.6256 67.0441 33.285 66.8751 32.9999L64.0001 28.2624C63.9155 28.12 63.8034 27.9958 63.6703 27.8971C63.5373 27.7984 63.3859 27.7271 63.2251 27.6874C63.0678 27.644 62.9033 27.6338 62.7419 27.6575C62.5805 27.6811 62.4257 27.7382 62.2876 27.8249L57.5001 30.6499C57.2151 30.8179 57.0083 31.0921 56.9251 31.4124C56.8506 31.7351 56.8996 32.074 57.0626 32.3624L60.0001 37.0874ZM62.5001 30.6124L64.0376 33.1999L61.4501 34.7374L59.9126 32.1499L62.5001 30.6124Z" fill="#A0A37A"/>
<path d="M66.8501 43.8374C66.2745 43.6906 65.6755 43.6591 65.0876 43.745C64.4998 43.8308 63.9347 44.0321 63.4251 44.3374C62.6574 44.801 62.0444 45.4816 61.6633 46.2934C61.2822 47.1052 61.1502 48.0117 61.2839 48.8984C61.4177 49.7851 61.8112 50.6124 62.4147 51.2756C63.0183 51.9389 63.8049 52.4084 64.6751 52.6249C65.0395 52.7129 65.4128 52.7591 65.7876 52.7624C66.8862 52.7518 67.9437 52.343 68.7637 51.6118C69.5838 50.8805 70.1106 49.8766 70.2465 48.7864C70.3824 47.6961 70.1181 46.5936 69.5027 45.6835C68.8873 44.7733 67.9625 44.1174 66.9001 43.8374H66.8501ZM67.7126 48.7499C67.6235 49.1192 67.4324 49.4559 67.161 49.7217C66.8896 49.9874 66.549 50.1715 66.178 50.2529C65.8069 50.3343 65.4205 50.3097 65.0628 50.1819C64.7051 50.0541 64.3906 49.8283 64.1551 49.5302C63.9197 49.2322 63.7728 48.8739 63.7313 48.4963C63.6897 48.1188 63.7552 47.7372 63.9203 47.395C64.0853 47.0529 64.3432 46.7641 64.6646 46.5617C64.9859 46.3592 65.3578 46.2511 65.7376 46.2499C65.9038 46.2317 66.0714 46.2317 66.2376 46.2499C66.4997 46.3154 66.7461 46.4324 66.9625 46.594C67.1789 46.7556 67.3611 46.9586 67.4983 47.1912C67.6356 47.4239 67.7252 47.6815 67.762 47.9491C67.7988 48.2167 67.782 48.4889 67.7126 48.7499Z" fill="#A0A37A"/>
<path d="M49.1626 31.7499C48.9178 31.9724 48.7711 32.2828 48.7547 32.6131C48.7383 32.9435 48.8535 33.2669 49.0751 33.5124C49.192 33.6419 49.3346 33.7455 49.4939 33.8166C49.6532 33.8876 49.8257 33.9245 50.0001 33.9249C50.3099 33.9241 50.6083 33.8083 50.8376 33.5999C54.0885 30.3455 56.1115 26.0653 56.5626 21.4874C56.5798 21.3231 56.5644 21.157 56.517 20.9988C56.4697 20.8405 56.3915 20.6932 56.2869 20.5653C56.1823 20.4374 56.0533 20.3316 55.9076 20.2538C55.7618 20.1761 55.6021 20.1281 55.4376 20.1124C55.2742 20.0951 55.1091 20.1102 54.9516 20.1567C54.794 20.2032 54.6472 20.2804 54.5195 20.3837C54.3918 20.487 54.2857 20.6145 54.2073 20.7588C54.1289 20.9032 54.0797 21.0616 54.0626 21.2249C53.6562 25.1836 51.9303 28.8906 49.1626 31.7499Z" fill="#A0A37A"/>
<path d="M52.1624 44.5751C52.4329 44.5751 52.696 44.4873 52.9124 44.3251C56.2452 42.1671 60.2108 41.2022 64.1624 41.5876C64.4939 41.619 64.8244 41.5176 65.0811 41.3054C65.3377 41.0933 65.4996 40.7878 65.5311 40.4563C65.5626 40.1248 65.4611 39.7943 65.249 39.5376C65.0368 39.2809 64.7314 39.119 64.3999 39.0876C59.8239 38.625 55.2291 39.7648 51.3999 42.3125C51.2676 42.4101 51.1559 42.5328 51.0711 42.6736C50.9863 42.8144 50.9301 42.9706 50.9057 43.1331C50.8813 43.2957 50.8892 43.4614 50.929 43.6209C50.9687 43.7804 51.0396 43.9305 51.1374 44.0626C51.255 44.2235 51.4094 44.354 51.5877 44.4432C51.766 44.5323 51.9631 44.5776 52.1624 44.5751Z" fill="#A0A37A"/>
</svg>
