<svg width="69" height="81" viewBox="0 0 69 81" fill="none" xmlns="http://www.w3.org/2000/svg">
<path d="M61.536 59.848C61.728 59.848 61.824 60.04 61.824 60.424C61.824 60.808 61.728 61 61.536 61H50.784C50.272 61 49.344 61 48 61C46.72 61.064 44.896 59.464 42.528 56.2C40.16 52.872 37.888 49.832 35.712 47.08L21.024 28.552L17.856 31.624V53.224C17.856 55.144 18.048 56.584 18.432 57.544C18.816 58.44 19.552 59.048 20.64 59.368C21.792 59.688 23.584 59.848 26.016 59.848C26.208 59.848 26.304 60.04 26.304 60.424C26.304 60.808 26.208 61 26.016 61C24.096 61 22.56 60.968 21.408 60.904L14.688 60.808L8.16 60.904C7.008 60.968 5.408 61 3.36 61C3.232 61 3.168 60.808 3.168 60.424C3.168 60.04 3.232 59.848 3.36 59.848C5.792 59.848 7.552 59.688 8.64 59.368C9.792 59.048 10.56 58.44 10.944 57.544C11.392 56.584 11.616 55.144 11.616 53.224V8.776C11.616 6.856 11.424 5.448 11.04 4.552C10.656 3.656 9.888 3.04799 8.736 2.72799C7.648 2.344 5.888 2.152 3.456 2.152C3.328 2.152 3.264 1.96 3.264 1.576C3.264 1.192 3.328 1 3.456 1L8.256 1.096C10.944 1.224 13.088 1.288 14.688 1.288C16.544 1.288 18.816 1.224 21.504 1.096L26.016 1C26.208 1 26.304 1.192 26.304 1.576C26.304 1.96 26.208 2.152 26.016 2.152C23.648 2.152 21.888 2.344 20.736 2.72799C19.648 3.112 18.88 3.784 18.432 4.744C18.048 5.64 17.856 7.048 17.856 8.96799V29.224L38.4 8.776C40.512 6.664 41.568 5.096 41.568 4.07199C41.568 2.792 39.68 2.152 35.904 2.152C35.776 2.152 35.712 1.96 35.712 1.576C35.712 1.192 35.776 1 35.904 1L40.032 1.096C42.592 1.224 44.928 1.288 47.04 1.288C49.152 1.288 51.36 1.224 53.664 1.096L57.216 1C57.408 1 57.504 1.192 57.504 1.576C57.504 1.96 57.408 2.152 57.216 2.152C54.592 2.152 51.808 2.728 48.864 3.88C45.92 5.032 43.168 6.856 40.608 9.352L25.44 24.232L39.264 41.896C43.936 47.976 47.488 52.264 49.92 54.76C52.416 57.256 54.336 58.728 55.68 59.176C57.024 59.624 58.976 59.848 61.536 59.848Z" fill="#A0A37A"/>
<path d="M35.392 51.256C34.1547 51.256 32.7253 51.192 31.104 51.064C30.5067 51.0213 29.7387 50.9787 28.8 50.936C27.904 50.8933 26.9013 50.872 25.792 50.872L21.44 50.936C20.672 50.9787 19.6053 51 18.24 51C18.1547 51 18.112 50.872 18.112 50.616C18.112 50.36 18.1547 50.232 18.24 50.232C19.8613 50.232 21.0347 50.1253 21.76 49.912C22.528 49.6987 23.04 49.2933 23.296 48.696C23.5947 48.056 23.744 47.096 23.744 45.816V16.184C23.744 14.904 23.616 13.9653 23.36 13.368C23.104 12.7707 22.592 12.3653 21.824 12.152C21.0987 11.896 19.9253 11.768 18.304 11.768C18.2187 11.768 18.176 11.64 18.176 11.384C18.176 11.128 18.2187 11 18.304 11L21.504 11.064C23.296 11.1493 24.7253 11.192 25.792 11.192C27.4133 11.192 29.0133 11.128 30.592 11C32.4693 10.9147 33.7707 10.872 34.496 10.872C38.9333 10.872 42.8587 11.7253 46.272 13.432C49.728 15.1387 52.3947 17.464 54.272 20.408C56.1493 23.352 57.088 26.6587 57.088 30.328C57.088 34.4667 56.1067 38.136 54.144 41.336C52.224 44.4933 49.6 46.9467 46.272 48.696C42.944 50.4027 39.3173 51.256 35.392 51.256ZM34.752 50.296C38.1653 50.296 41.1947 49.592 43.84 48.184C46.4853 46.7333 48.5333 44.6213 49.984 41.848C51.4773 39.032 52.224 35.6613 52.224 31.736C52.224 28.024 51.52 24.6533 50.112 21.624C48.704 18.5947 46.6987 16.2053 44.096 14.456C41.4933 12.7067 38.4853 11.832 35.072 11.832C33.2373 11.832 31.808 11.9387 30.784 12.152C29.8027 12.3653 29.0773 12.792 28.608 13.432C28.1387 14.072 27.904 15.032 27.904 16.312V45.112C27.904 46.392 28.0747 47.3947 28.416 48.12C28.8 48.8453 29.4827 49.4 30.464 49.784C31.488 50.1253 32.9173 50.296 34.752 50.296Z" fill="#2E5341"/>
<path d="M8.4 77.1C7.49333 77.1 6.67333 76.8933 5.94 76.48C5.20667 76.0533 4.62 75.4467 4.18 74.66C3.75333 73.86 3.54 72.8867 3.54 71.74C3.54 70.5933 3.75333 69.6267 4.18 68.84C4.60667 68.04 5.18667 67.4333 5.92 67.02C6.65333 66.6067 7.48 66.4 8.4 66.4C9.4 66.4 10.2933 66.6267 11.08 67.08C11.88 67.52 12.5067 68.1467 12.96 68.96C13.4133 69.76 13.64 70.6867 13.64 71.74C13.64 72.8067 13.4133 73.74 12.96 74.54C12.5067 75.34 11.88 75.9667 11.08 76.42C10.2933 76.8733 9.4 77.1 8.4 77.1ZM2.98 80.88V66.5H4.34V69.66L4.2 71.76L4.4 73.88V80.88H2.98ZM8.3 75.84C9.04667 75.84 9.71333 75.6733 10.3 75.34C10.8867 74.9933 11.3533 74.5133 11.7 73.9C12.0467 73.2733 12.22 72.5533 12.22 71.74C12.22 70.9267 12.0467 70.2133 11.7 69.6C11.3533 68.9867 10.8867 68.5067 10.3 68.16C9.71333 67.8133 9.04667 67.64 8.3 67.64C7.55333 67.64 6.88 67.8133 6.28 68.16C5.69333 68.5067 5.22667 68.9867 4.88 69.6C4.54667 70.2133 4.38 70.9267 4.38 71.74C4.38 72.5533 4.54667 73.2733 4.88 73.9C5.22667 74.5133 5.69333 74.9933 6.28 75.34C6.88 75.6733 7.55333 75.84 8.3 75.84ZM23.2947 66.4C24.148 66.4 24.8947 66.5667 25.5347 66.9C26.188 67.22 26.6947 67.7133 27.0547 68.38C27.428 69.0467 27.6147 69.8867 27.6147 70.9V77H26.1947V71.04C26.1947 69.9333 25.9147 69.1 25.3547 68.54C24.808 67.9667 24.0347 67.68 23.0347 67.68C22.288 67.68 21.6347 67.8333 21.0747 68.14C20.528 68.4333 20.1014 68.8667 19.7947 69.44C19.5014 70 19.3547 70.68 19.3547 71.48V77H17.9347V62.16H19.3547V69.38L19.0747 68.84C19.408 68.08 19.9414 67.4867 20.6747 67.06C21.408 66.62 22.2814 66.4 23.2947 66.4ZM37.1303 77.1C36.117 77.1 35.2036 76.8733 34.3903 76.42C33.5903 75.9533 32.957 75.32 32.4903 74.52C32.0236 73.7067 31.7903 72.78 31.7903 71.74C31.7903 70.6867 32.0236 69.76 32.4903 68.96C32.957 68.16 33.5903 67.5333 34.3903 67.08C35.1903 66.6267 36.1036 66.4 37.1303 66.4C38.1703 66.4 39.0903 66.6267 39.8903 67.08C40.7036 67.5333 41.337 68.16 41.7903 68.96C42.257 69.76 42.4903 70.6867 42.4903 71.74C42.4903 72.78 42.257 73.7067 41.7903 74.52C41.337 75.32 40.7036 75.9533 39.8903 76.42C39.077 76.8733 38.157 77.1 37.1303 77.1ZM37.1303 75.84C37.8903 75.84 38.5636 75.6733 39.1503 75.34C39.737 74.9933 40.197 74.5133 40.5303 73.9C40.877 73.2733 41.0503 72.5533 41.0503 71.74C41.0503 70.9133 40.877 70.1933 40.5303 69.58C40.197 68.9667 39.737 68.4933 39.1503 68.16C38.5636 67.8133 37.897 67.64 37.1503 67.64C36.4036 67.64 35.737 67.8133 35.1503 68.16C34.5636 68.4933 34.097 68.9667 33.7503 69.58C33.4036 70.1933 33.2303 70.9133 33.2303 71.74C33.2303 72.5533 33.4036 73.2733 33.7503 73.9C34.097 74.5133 34.5636 74.9933 35.1503 75.34C35.737 75.6733 36.397 75.84 37.1303 75.84ZM50.1094 77.1C49.1227 77.1 48.3627 76.8333 47.8294 76.3C47.296 75.7667 47.0294 75.0133 47.0294 74.04V64.18H48.4494V73.96C48.4494 74.5733 48.6027 75.0467 48.9094 75.38C49.2294 75.7133 49.6827 75.88 50.2694 75.88C50.896 75.88 51.416 75.7 51.8294 75.34L52.3294 76.36C52.0494 76.6133 51.7094 76.8 51.3094 76.92C50.9227 77.04 50.5227 77.1 50.1094 77.1ZM45.1494 67.68V66.5H51.6494V67.68H45.1494ZM60.2233 77.1C59.2099 77.1 58.2966 76.8733 57.4833 76.42C56.6833 75.9533 56.0499 75.32 55.5833 74.52C55.1166 73.7067 54.8833 72.78 54.8833 71.74C54.8833 70.6867 55.1166 69.76 55.5833 68.96C56.0499 68.16 56.6833 67.5333 57.4833 67.08C58.2833 66.6267 59.1966 66.4 60.2233 66.4C61.2633 66.4 62.1833 66.6267 62.9833 67.08C63.7966 67.5333 64.4299 68.16 64.8833 68.96C65.3499 69.76 65.5833 70.6867 65.5833 71.74C65.5833 72.78 65.3499 73.7067 64.8833 74.52C64.4299 75.32 63.7966 75.9533 62.9833 76.42C62.1699 76.8733 61.2499 77.1 60.2233 77.1ZM60.2233 75.84C60.9833 75.84 61.6566 75.6733 62.2433 75.34C62.8299 74.9933 63.2899 74.5133 63.6233 73.9C63.9699 73.2733 64.1433 72.5533 64.1433 71.74C64.1433 70.9133 63.9699 70.1933 63.6233 69.58C63.2899 68.9667 62.8299 68.4933 62.2433 68.16C61.6566 67.8133 60.9899 67.64 60.2433 67.64C59.4966 67.64 58.8299 67.8133 58.2433 68.16C57.6566 68.4933 57.1899 68.9667 56.8433 69.58C56.4966 70.1933 56.3233 70.9133 56.3233 71.74C56.3233 72.5533 56.4966 73.2733 56.8433 73.9C57.1899 74.5133 57.6566 74.9933 58.2433 75.34C58.8299 75.6733 59.4899 75.84 60.2233 75.84Z" fill="#A0A37A"/>
</svg>
