<svg width="70" height="70" viewBox="0 0 70 70" fill="none" xmlns="http://www.w3.org/2000/svg">
<path d="M61.9091 62.6534H8.08969C3.62831 62.6534 0 59.0251 0 54.5638V21.7559C0 17.2945 3.62831 13.6662 8.08969 13.6662H19.0715L20.0328 10.4235C20.4251 8.64905 22.0472 7.34668 23.955 7.34668H46.0452C47.8991 7.34668 49.5399 8.64234 49.9741 10.4396L49.9997 10.5502L50.876 13.666H61.9103C66.3717 13.666 70 17.2943 70 21.7556V54.5633C69.9987 59.0251 66.3692 62.6534 61.9091 62.6534ZM8.08969 16.3628C5.11529 16.3628 2.69663 18.7817 2.69663 21.7559V54.5636C2.69663 57.5379 5.1155 59.9566 8.08969 59.9566H61.9091C64.8834 59.9566 67.3021 57.5377 67.3021 54.5636V21.7559C67.3021 18.7815 64.8832 16.3628 61.9091 16.3628H48.8335L47.3572 11.0977C47.2211 10.4855 46.6695 10.0421 46.0439 10.0421H23.9535C23.3185 10.0421 22.7791 10.4761 22.6403 11.0992L21.0817 16.3628H8.08969ZM35.0015 54.5029C25.5649 54.5029 17.8877 46.8272 17.8877 37.3919C17.8877 27.9553 25.5647 20.2796 35.0015 20.2796C44.4355 20.2796 52.1113 27.9566 52.1113 37.3919C52.111 46.8259 44.4353 54.5029 35.0015 54.5029ZM35.0015 22.9747C27.0519 22.9747 20.5843 29.4411 20.5843 37.3906C20.5843 45.3402 27.0521 51.805 35.0015 51.805C42.9495 51.805 49.4146 45.3387 49.4146 37.3906C49.4144 29.4411 42.9481 22.9747 35.0015 22.9747ZM60.1684 21.3675C58.7933 21.3675 57.6808 22.4826 57.6808 23.8552C57.6808 25.2291 58.793 26.3427 60.1684 26.3427C61.5423 26.3427 62.6546 25.2289 62.6546 23.8552C62.6534 22.4826 61.5409 21.3675 60.1684 21.3675Z" fill="#A0A37A"/>
</svg>
